<svg xmlns="http://www.w3.org/2000/svg" viewBox="0 0 48 48">
	<path fill="#be8549" d="M 6.00,2.00 C 3.79,2.00 2.00,3.79 2.00,6.00 2.00,6.00 2.00,10.00 2.00,10.00 2.00,12.21 3.79,14.00 6.00,14.00 6.00,14.00 42.00,14.00 42.00,14.00 44.21,14.00 46.00,12.21 46.00,10.00 46.00,10.00 46.00,6.00 46.00,6.00 46.00,3.79 44.21,2.00 42.00,2.00 42.00,2.00 6.00,2.00 6.00,2.00 Z M 7.00,16.00 C 4.24,16.00 2.00,18.24 2.00,21.00 2.00,21.00 2.00,41.00 2.00,41.00 2.00,43.76 4.24,46.00 7.00,46.00 7.00,46.00 41.00,46.00 41.00,46.00 43.76,46.00 46.00,43.76 46.00,41.00 46.00,41.00 46.00,21.00 46.00,21.00 46.00,18.24 43.76,16.00 41.00,16.00 41.00,16.00 7.00,16.00 7.00,16.00 Z" />
	<path fill="#8b5929" d="M 20.00,24.00 C 18.90,24.00 18.00,24.90 18.00,26.00 18.00,26.00 18.00,26.00 18.00,26.00 18.00,27.10 18.90,28.00 20.00,28.00 20.00,28.00 28.00,28.00 28.00,28.00 29.10,28.00 30.00,27.10 30.00,26.00 30.00,26.00 30.00,26.00 30.00,26.00 30.00,24.90 29.10,24.00 28.00,24.00 28.00,24.00 20.00,24.00 20.00,24.00 Z" />
</svg>
